<svg xmlns="http://www.w3.org/2000/svg" width="1310" height="694" viewBox="0 0 1310 694" fill="none" style="width: 100%;height: auto;transform: translate(80px, 0px); margin-bottom: -150px">
    <g id="module 3">
    <path id="dotted line" d="M77.7637 108C42 108 1 129 1 183C1 233 33.5 263 82 263C111 263 161.515 250 198.5 164C224 104.705 265.5 42.5001 383.045 48.3305C430.113 50.6651 541.697 82.4873 534.44 237.229C529.582 340.784 584.895 419.197 692.2 434.07C785.915 447.06 885.772 376.814 899.5 254C918 88.5001 1014 71.5001 1079.5 77.5001C1145 83.5001 1263.69 159.85 1188 330.5C1107.34 512.35 1098.5 672 1308.5 692.5" stroke="#653388" stroke-width="1.48429" stroke-linecap="round" stroke-linejoin="round" stroke-dasharray="3.96 9.9"></path>
    <g id="Aussie owned">
    <g id="Ellipse 29" filter="url(#filter0_d_1248_386)">
    <circle cx="1049.5" cy="181.013" r="40" fill="#FAF3FF"></circle>
    </g>
    <text id="Local Drop-off" fill="#63388C" xml:space="preserve" style="white-space: pre" font-family="Open Sans" font-size="21" letter-spacing="0em"><tspan x="979" y="278.647">Local Drop-off</tspan></text>
    <text id="You may drop off your
device at Melbourne CBD." fill="black" xml:space="preserve" style="white-space: pre" font-family="Open Sans" font-size="14" letter-spacing="0em"><tspan x="976.485" y="308.931">You may drop off your
</tspan><tspan x="965.158" y="331.931">device at Melbourne CBD. </tspan></text>
    <g id="aussie icon">
    <path id="Vector" d="M1054.05 188.334C1054.12 188.389 1054.19 188.435 1054.27 188.469C1054.47 188.531 1054.65 188.648 1054.8 188.807C1054.94 188.966 1055.03 189.162 1055.07 189.372C1055.21 191.105 1055.6 191.502 1057.47 191.547C1058.28 191.534 1059.08 191.701 1059.82 192.034C1060.02 192.154 1060.26 192.209 1060.5 192.193C1060.74 192.177 1060.96 192.09 1061.15 191.944C1061.64 191.525 1062.25 191.278 1062.89 191.24C1063.1 191.245 1063.3 191.272 1063.51 191.321C1063.58 191.215 1063.62 191.095 1063.64 190.969C1064.18 189.294 1065.04 187.74 1066.17 186.393C1067.55 184.588 1067.77 182.44 1068.04 180.175V179.913C1068.03 179.554 1067.95 179.2 1067.81 178.871C1067.66 178.543 1067.45 178.247 1067.19 178C1067.03 177.801 1066.88 177.593 1066.75 177.377L1066.52 177.161C1066.4 177.047 1066.3 176.906 1066.24 176.75C1066.18 176.593 1066.16 176.425 1066.17 176.258V176.168C1065.16 175.368 1064.47 174.236 1064.22 172.973C1064.17 172.855 1064.09 172.75 1063.99 172.666C1063.89 172.582 1063.77 172.52 1063.64 172.486C1062.4 172.35 1062.17 171.466 1062 170.843C1061.95 170.626 1061.88 170.417 1061.78 170.22C1061.53 169.652 1061.42 169.033 1061.46 168.415C1061.46 167.305 1061.38 166.61 1060.27 166.375C1059.77 166.24 1059.77 165.527 1059.77 165.527C1059.73 164.927 1059.58 164.34 1059.33 163.794C1059.24 163.532 1059.11 163.262 1059.02 163C1058.57 163.836 1058.32 164.76 1058.26 165.708C1058.23 166.081 1058.17 166.452 1058.08 166.818C1058.08 166.953 1058.08 167.125 1058 167.26C1057.9 167.996 1057.69 168.713 1057.38 169.39C1057.38 169.39 1057.38 169.48 1057.29 169.525L1057.02 169.796V169.841C1056.83 169.989 1056.6 170.066 1056.36 170.058C1056.07 170.042 1055.8 169.952 1055.56 169.796C1055.51 169.796 1055.47 169.796 1055.38 169.706C1054.41 169.184 1053.5 168.557 1052.67 167.838L1052.27 167.531C1051.86 167.204 1051.59 166.743 1051.49 166.23C1051.39 165.717 1051.48 165.186 1051.74 164.733C1051.86 164.52 1052.01 164.326 1052.18 164.155C1052.2 164.097 1052.2 164.033 1052.18 163.975C1052.18 163.927 1052.14 163.881 1052.05 163.839C1051.47 163.749 1050.98 163.704 1050.49 163.668L1049.38 163.505C1049.01 163.45 1048.63 163.544 1048.32 163.767C1048.23 163.862 1048.12 163.935 1047.99 163.982C1047.87 164.028 1047.74 164.048 1047.61 164.038C1047.31 164.03 1047.01 164.087 1046.74 164.208C1046.47 164.328 1046.22 164.507 1046.03 164.732C1045.83 164.958 1045.69 165.224 1045.61 165.511C1045.53 165.798 1045.52 166.1 1045.57 166.393C1045.57 166.47 1045.56 166.547 1045.53 166.616C1045.5 166.686 1045.45 166.746 1045.39 166.791C1045.32 166.834 1045.24 166.858 1045.16 166.858C1045.09 166.858 1045.01 166.834 1044.94 166.791C1044.49 166.604 1044.01 166.497 1043.52 166.475C1042.27 166.572 1041.11 167.148 1040.28 168.081V168.126C1040.1 168.298 1039.79 168.523 1039.44 168.785C1038.97 169.112 1038.53 169.468 1038.1 169.85C1038.16 170.289 1038.05 170.732 1037.8 171.096L1037.71 171.231C1036.72 172.783 1035.12 173.271 1033.75 173.722C1033.5 173.811 1033.25 173.883 1032.99 173.939C1030.38 174.841 1029.71 175.807 1030.11 177.937C1030.19 178.142 1030.29 178.337 1030.42 178.514C1030.72 178.862 1030.87 179.305 1030.86 179.76C1030.86 179.851 1030.83 179.939 1030.77 180.011C1030.72 180.082 1030.64 180.134 1030.55 180.157C1030.47 180.157 1030.47 180.247 1030.47 180.247C1030.47 180.247 1030.47 180.338 1030.47 180.383C1030.59 180.599 1030.82 180.915 1031 181.222C1032.28 183.18 1033.62 185.22 1033.04 187.973C1033.67 188.243 1034.35 188.396 1035.03 188.424C1035.16 188.422 1035.28 188.407 1035.39 188.379C1035.68 187.835 1036.13 187.391 1036.68 187.104C1037.22 186.818 1037.84 186.702 1038.45 186.773H1039.3C1039.49 186.781 1039.67 186.745 1039.84 186.668C1040.01 186.591 1040.16 186.475 1040.28 186.33C1041.48 184.868 1043.12 184.525 1044.72 184.291C1045.08 184.291 1045.39 184.155 1045.74 184.11C1045.87 184.065 1045.96 184.065 1046.1 184.02C1046.39 183.913 1046.69 183.855 1047 183.848C1047.18 183.857 1047.36 183.884 1047.53 183.93C1048.34 184.113 1049.1 184.456 1049.77 184.938C1050.44 185.42 1051.01 186.031 1051.44 186.736L1052.73 185.617C1052.79 185.565 1052.86 185.529 1052.94 185.515C1053.02 185.5 1053.1 185.508 1053.17 185.536C1053.26 185.562 1053.33 185.616 1053.38 185.688C1053.43 185.76 1053.45 185.846 1053.45 185.933V186.466C1053.45 187.088 1053.49 187.305 1053.75 187.486C1053.91 187.546 1054.03 187.662 1054.11 187.81C1054.18 187.958 1054.2 188.128 1054.16 188.289L1054.05 188.334Z" stroke="#63388C" stroke-width="1.77086" stroke-linecap="round" stroke-linejoin="round"></path>
    </g>
    </g>
    <g id="Risk free service">
    <text id="If you're not happy with your final offer,
we can send back your device free of charge" fill="black" xml:space="preserve" style="white-space: pre" font-family="Open Sans" font-size="14" letter-spacing="0em"><tspan x="589.89" y="55.9312">If you're not happy with your final offer,
</tspan><tspan x="575.062" y="78.9312">we can send back your device free of charge</tspan></text>
    <text id="Risk Free Service" fill="#63388C" xml:space="preserve" style="white-space: pre" font-family="Open Sans" font-size="21" letter-spacing="0em"><tspan x="638" y="22.6467">Risk Free Service</tspan></text>
    <g id="risk icon">
    <g id="Ellipse 29_2" filter="url(#filter1_d_1248_386)">
    <circle cx="719" cy="180" r="40" fill="#FAF3FF"></circle>
    </g>
    <g id="Group 75">
    <path id="Vector_2" fill-rule="evenodd" clip-rule="evenodd" d="M732.817 167.591C732.785 167.378 732.679 167.184 732.517 167.042C732.355 166.9 732.148 166.82 731.933 166.816C729.377 166.784 726.849 166.276 724.478 165.319C722.578 164.549 720.804 163.499 719.214 162.204C719.043 162.071 718.832 161.999 718.615 162C718.403 161.999 718.196 162.071 718.03 162.204C716.419 163.504 714.621 164.554 712.698 165.319C710.327 166.276 707.799 166.784 705.243 166.816C705.028 166.82 704.821 166.9 704.659 167.042C704.497 167.184 704.391 167.378 704.359 167.591C703.842 171.455 702.767 183.385 710.657 192.907C712.688 195.332 715.117 197.393 717.84 199.002C718.075 199.14 718.342 199.215 718.615 199.219C718.892 199.214 719.164 199.14 719.404 199.002C722.128 197.394 724.557 195.333 726.587 192.907C734.477 183.385 733.389 171.482 732.817 167.618V167.591Z" stroke="#63388C" stroke-width="2" stroke-linecap="round" stroke-linejoin="round"></path>
    <path id="Vector_3" d="M724.987 175L716.817 185.415L713 181.598" stroke="#63388C" stroke-width="2" stroke-linecap="round" stroke-linejoin="round"></path>
    </g>
    </g>
    </g>
    <g id="Best prices">
    <text id="If a higher price is offered by another store, we'll beat it by 5%." fill="black" xml:space="preserve" style="white-space: pre" font-family="Open Sans" font-size="14" letter-spacing="0em"><tspan x="270.143" y="308.931">If a higher price is offered by </tspan><tspan x="252.581" y="331.931"><a href="https://mobilemonster.com.au/best-price-guarantee" target="_blank">another store, we'll beat it by 5%</a></tspan></text>
    <text id="Best Prices Guaranteed" fill="#63388C" xml:space="preserve" style="white-space: pre" font-family="Open Sans" font-size="21" letter-spacing="0em"><tspan x="248" y="278.647">Best Prices Guaranteed</tspan></text>
    <g id="best prices">
    <g id="Ellipse 28" filter="url(#filter2_d_1248_386)">
    <circle cx="361" cy="181" r="40" fill="#FAF3FF"></circle>
    </g>
    <g id="Group 74">
    <path id="Vector_4" d="M370.849 197.228C370.542 197.687 370.016 197.951 369.464 197.923L365.539 197.719C365.271 197.705 365.004 197.761 364.763 197.879L361.253 199.614C360.762 199.857 360.18 199.826 359.718 199.532L356.432 197.443C356.204 197.298 355.943 197.214 355.673 197.2L351.752 196.997C351.2 196.968 350.703 196.65 350.446 196.16L348.675 192.785C348.547 192.542 348.358 192.337 348.126 192.19L344.865 190.122C344.386 189.819 344.109 189.28 344.14 188.714L344.344 184.968C344.359 184.688 344.299 184.409 344.169 184.16L342.429 180.814C342.164 180.307 342.198 179.695 342.517 179.219L344.617 176.082C344.774 175.848 344.865 175.577 344.88 175.296L345.085 171.545C345.115 170.982 345.446 170.479 345.95 170.228L349.416 168.501C349.661 168.379 349.869 168.195 350.021 167.968L352.151 164.777C352.458 164.318 352.984 164.054 353.536 164.082L357.461 164.286C357.729 164.3 357.996 164.244 358.237 164.126L361.747 162.391C362.238 162.148 362.82 162.179 363.282 162.473L366.568 164.562C366.796 164.707 367.057 164.791 367.327 164.805L371.248 165.008C371.8 165.037 372.297 165.355 372.554 165.845L374.325 169.22C374.453 169.463 374.642 169.668 374.874 169.815L378.135 171.883C378.614 172.186 378.891 172.725 378.86 173.291L378.656 177.037C378.641 177.317 378.701 177.596 378.831 177.845L380.571 181.191C380.836 181.698 380.802 182.31 380.483 182.786L378.383 185.923C378.226 186.157 378.135 186.428 378.12 186.709L377.915 190.46C377.885 191.023 377.554 191.526 377.05 191.777L373.584 193.504C373.339 193.626 373.131 193.81 372.979 194.037L370.849 197.228Z" stroke="#63388C" stroke-width="2" stroke-linecap="round" stroke-linejoin="round"></path>
    <path id="Vector_5" d="M361.512 172C361.282 172.008 361.064 172.104 360.904 172.27C360.744 172.435 360.654 172.656 360.655 172.887V174.069C360.655 174.069 360.389 174.069 359.967 174.157C359.545 174.246 358.598 174.664 357.967 175.366C357.336 176.067 356.931 176.551 356.931 177.91C356.931 179.269 357.374 179.704 358.003 180.382C358.632 181.059 359.474 181.501 360.389 181.634C361.541 181.929 362.25 181.811 363.048 182.106C363.846 182.402 364.585 183.495 364.319 184.352C364.058 184.857 363.658 185.276 363.165 185.559C362.672 185.842 362.109 185.977 361.541 185.948C361.065 185.962 360.592 185.868 360.157 185.674C359.722 185.48 359.336 185.189 359.029 184.825C358.888 184.639 358.681 184.513 358.45 184.475C358.219 184.436 357.982 184.488 357.788 184.618C357.602 184.759 357.476 184.967 357.438 185.198C357.399 185.428 357.451 185.665 357.581 185.859C358.312 186.797 359.365 187.429 360.536 187.632V188.844C360.536 189.074 360.626 189.295 360.785 189.461C360.945 189.626 361.163 189.723 361.393 189.73C361.51 189.734 361.626 189.715 361.735 189.674C361.844 189.633 361.944 189.571 362.029 189.492C362.114 189.412 362.183 189.317 362.231 189.211C362.279 189.104 362.306 188.99 362.309 188.873V187.662C363.091 187.572 363.834 187.272 364.459 186.793C365.083 186.315 365.566 185.675 365.855 184.943C366.11 184.065 366.027 183.123 365.622 182.303C365.217 181.482 364.521 180.843 363.669 180.511C362.704 180.237 361.714 180.059 360.714 179.979C360.196 179.919 359.712 179.689 359.338 179.326C358.963 178.962 358.651 178.594 358.645 177.969C358.64 177.344 358.95 176.966 359.326 176.601C359.702 176.236 360.192 176.01 360.714 175.96C361.307 175.813 361.93 175.831 362.513 176.014C363.097 176.196 363.619 176.535 364.023 176.994C364.165 177.181 364.372 177.306 364.603 177.344C364.834 177.383 365.07 177.331 365.264 177.201C365.451 177.06 365.576 176.852 365.615 176.621C365.653 176.391 365.602 176.154 365.471 175.96C364.75 175.007 363.694 174.363 362.516 174.157V173.005C362.516 172.77 362.465 172.436 362.299 172.27C362.039 172.01 361.745 172 361.745 172H361.512Z" fill="#63388C"></path>
    </g>
    </g>
    </g>
    <g id="Fast payment">
    <text id="Get paid within 24 hours
after device is received." fill="black" xml:space="preserve" style="white-space: pre" font-family="Open Sans" font-size="14" letter-spacing="0em"><tspan x="2.41699" y="55.9312">Get paid within 1 business day
</tspan><tspan x="6.21777" y="78.9312">after the device is received.</tspan></text>
    <text id="Fast Payment" fill="#63388C" xml:space="preserve" style="white-space: pre" font-family="Open Sans" font-size="21" letter-spacing="0em"><tspan x="16" y="22.6467">Quick Payment</tspan></text>
    <g id="24 hour icon">
    <g id="Ellipse 27" filter="url(#filter3_d_1248_386)">
    <circle cx="78" cy="181" r="40" fill="#FAF3FF"></circle>
    </g>
    <g id="Icon_1" style="
    transform: translate(57px, 160px) scale(0.84);
">
    <path id="Path_48891" data-name="Path 48891" d="M46.969,24.984A21.984,21.984,0,1,1,24.984,3,21.984,21.984,0,0,1,46.969,24.984Z" transform="translate(0 0)" fill="none" stroke="#63388c" stroke-linecap="round" stroke-linejoin="round" stroke-width="3"></path>
    <path id="Path_48892" data-name="Path 48892" d="M18,9V22.191l8.794,4.4" transform="translate(6.984 2.794)" fill="none" stroke="#63388c" stroke-linecap="round" stroke-linejoin="round" stroke-width="3"></path>
    </g>
    </g>
    </g>
    </g>
    <defs>
    <filter id="filter0_d_1248_386" x="989.5" y="141.013" width="120" height="120" filterUnits="userSpaceOnUse" color-interpolation-filters="sRGB">
    <feFlood flood-opacity="0" result="BackgroundImageFix"></feFlood>
    <feColorMatrix in="SourceAlpha" type="matrix" values="0 0 0 0 0 0 0 0 0 0 0 0 0 0 0 0 0 0 127 0" result="hardAlpha"></feColorMatrix>
    <feOffset dy="20"></feOffset>
    <feGaussianBlur stdDeviation="10"></feGaussianBlur>
    <feComposite in2="hardAlpha" operator="out"></feComposite>
    <feColorMatrix type="matrix" values="0 0 0 0 0.886275 0 0 0 0 0.815686 0 0 0 0 0.933333 0 0 0 1 0"></feColorMatrix>
    <feBlend mode="normal" in2="BackgroundImageFix" result="effect1_dropShadow_1248_386"></feBlend>
    <feBlend mode="normal" in="SourceGraphic" in2="effect1_dropShadow_1248_386" result="shape"></feBlend>
    </filter>
    <filter id="filter1_d_1248_386" x="659" y="140" width="120" height="120" filterUnits="userSpaceOnUse" color-interpolation-filters="sRGB">
    <feFlood flood-opacity="0" result="BackgroundImageFix"></feFlood>
    <feColorMatrix in="SourceAlpha" type="matrix" values="0 0 0 0 0 0 0 0 0 0 0 0 0 0 0 0 0 0 127 0" result="hardAlpha"></feColorMatrix>
    <feOffset dy="20"></feOffset>
    <feGaussianBlur stdDeviation="10"></feGaussianBlur>
    <feComposite in2="hardAlpha" operator="out"></feComposite>
    <feColorMatrix type="matrix" values="0 0 0 0 0.886275 0 0 0 0 0.815686 0 0 0 0 0.933333 0 0 0 1 0"></feColorMatrix>
    <feBlend mode="normal" in2="BackgroundImageFix" result="effect1_dropShadow_1248_386"></feBlend>
    <feBlend mode="normal" in="SourceGraphic" in2="effect1_dropShadow_1248_386" result="shape"></feBlend>
    </filter>
    <filter id="filter2_d_1248_386" x="301" y="141" width="120" height="120" filterUnits="userSpaceOnUse" color-interpolation-filters="sRGB">
    <feFlood flood-opacity="0" result="BackgroundImageFix"></feFlood>
    <feColorMatrix in="SourceAlpha" type="matrix" values="0 0 0 0 0 0 0 0 0 0 0 0 0 0 0 0 0 0 127 0" result="hardAlpha"></feColorMatrix>
    <feOffset dy="20"></feOffset>
    <feGaussianBlur stdDeviation="10"></feGaussianBlur>
    <feComposite in2="hardAlpha" operator="out"></feComposite>
    <feColorMatrix type="matrix" values="0 0 0 0 0.886275 0 0 0 0 0.815686 0 0 0 0 0.933333 0 0 0 1 0"></feColorMatrix>
    <feBlend mode="normal" in2="BackgroundImageFix" result="effect1_dropShadow_1248_386"></feBlend>
    <feBlend mode="normal" in="SourceGraphic" in2="effect1_dropShadow_1248_386" result="shape"></feBlend>
    </filter>
    <filter id="filter3_d_1248_386" x="18" y="141" width="120" height="120" filterUnits="userSpaceOnUse" color-interpolation-filters="sRGB">
    <feFlood flood-opacity="0" result="BackgroundImageFix"></feFlood>
    <feColorMatrix in="SourceAlpha" type="matrix" values="0 0 0 0 0 0 0 0 0 0 0 0 0 0 0 0 0 0 127 0" result="hardAlpha"></feColorMatrix>
    <feOffset dy="20"></feOffset>
    <feGaussianBlur stdDeviation="10"></feGaussianBlur>
    <feComposite in2="hardAlpha" operator="out"></feComposite>
    <feColorMatrix type="matrix" values="0 0 0 0 0.886275 0 0 0 0 0.815686 0 0 0 0 0.933333 0 0 0 1 0"></feColorMatrix>
    <feBlend mode="normal" in2="BackgroundImageFix" result="effect1_dropShadow_1248_386"></feBlend>
    <feBlend mode="normal" in="SourceGraphic" in2="effect1_dropShadow_1248_386" result="shape"></feBlend>
    </filter>
    </defs>
    </svg>